<svg id="SvgjsSvg1001" width="288" height="288" xmlns="http://www.w3.org/2000/svg" version="1.1" xmlns:xlink="http://www.w3.org/1999/xlink" xmlns:svgjs="http://svgjs.com/svgjs"><defs id="SvgjsDefs1002"></defs><g id="SvgjsG1008"><svg xmlns="http://www.w3.org/2000/svg" data-name="Layer 1" viewBox="0 0 16 16" width="288" height="288"><path d="M6.5,11A1.5,1.5,0,1,1,5,9.5,1.5,1.5,0,0,1,6.5,11ZM5,3.5A1.5,1.5,0,1,0,6.5,5,1.5,1.5,0,0,0,5,3.5ZM12.5,11A1.5,1.5,0,1,1,11,9.5,1.5,1.5,0,0,1,12.5,11ZM11,3.5A1.5,1.5,0,1,0,12.5,5,1.5,1.5,0,0,0,11,3.5Z" class="cls-1 color000 svgShape" fill="#ffffff"></path></svg></g></svg>